# xmcd CD database file
#
# Track frame offsets:
#	150
#	31152
#	57367
#	94312
#	119215
#	145085
#	165567
#	187975
#	214682
#	238752
#	273322
#	296507
#	310447
#
# Disc length: 4506 seconds
#
# Revision: 1
# Processed by: cddbd v1.4PL0 Copyright (c) Steve Scherf et al.
# Submitted via: CDex 1.50
#
DISCID=c311980d
DTITLE=Eric Kloss - About Time
DYEAR=2002
DGENRE=Jazz
TTITLE0=Close Your Eyes
TTITLE1=Old Folks
TTITLE2='S 'Bout Time
TTITLE3=That's The Way It Is
TTITLE4=All Blues
TTITLE5=Embraceable You
TTITLE6=You'd Be So Nice To Come Home To
TTITLE7=Just For Fun-K
TTITLE8=No Blues
TTITLE9=Love For Sale
TTITLE10=I'm Glad There Is You
TTITLE11=The Shadow Of Your Smile
TTITLE12=Gemini
EXTD=YEAR: 2002
EXTT0=
EXTT1=
EXTT2=
EXTT3=
EXTT4=
EXTT5=
EXTT6=
EXTT7=
EXTT8=
EXTT9=
EXTT10=
EXTT11=
EXTT12=
PLAYORDER=
